<svg xmlns="http://www.w3.org/2000/svg" version="1.1" xmlns:xlink="http://www.w3.org/1999/xlink" xmlns:svgjs="http://svgjs.dev/svgjs" width="1500" height="1500" viewBox="0 0 1500 1500"><rect width="1500" height="1500" fill="#ffffff"></rect><g transform="matrix(0.6666666666666666,0,0,0.6666666666666666,248.44244080996884,189.33333333333348)"><svg viewBox="0 0 321 360" data-background-color="#ffffff" preserveAspectRatio="xMidYMid meet" height="1682" width="1500" xmlns="http://www.w3.org/2000/svg" xmlns:xlink="http://www.w3.org/1999/xlink"><g id="tight-bounds" transform="matrix(1,0,0,1,0.5000234999999975,0)"><svg viewBox="0 0 320 360" height="360" width="320"><g><svg></svg></g><g><svg viewBox="0 0 320 360" height="360" width="320"><g><path transform="translate(-74.99272,-51.79039) scale(4.65793,4.65793)" d="M20.6 59.9l0.8 1-0.4-1.3c-0.1-0.6-0.8 0.1-0.4 0.3M21.5 59.3c0.3 0.5 0.6 1 0.6 1.5 0 0.7 0.6 1 1.1 1.2-0.7-0.8-1.1-3-1.7-2.7M59.9 16.9c1.7 0 3.3-0.2 5.1 0.2 4.4 1.1 8.1 3.3 10.6 6.4l7 11.2c0.3 2.8 0.9 5.9 0.8 9.3 0.7 0 0.6-1 1.4-1.2-0.8 2-1.2 4.5-1.4 7.4-0.5-1.6 0-4 0.1-5.3-0.7 1.1-1.1 0.3-1.1-0.2 0.1-0.8-0.3-0.7-0.6-1-1.1-1-1.8-2.1-2.6-3.8 0.5-1.3 0.6-3.2-1-4.2-0.5-0.3-1.1-0.8-1.4-1.6-0.4-1.1-1.1-2.4-0.9-4.1 0.1-0.5-1.5 1.1-2.4 0.4-3.9-2.7-7.8-5.8-12.5-8.4-2.5 0-4.3-0.9-5.2-2-0.8-1-0.2-2.3 1-2.4 0.7 0 1.5-0.2 2.1 0.2 0.1-0.4 0.5-0.9 1-0.9M50 14.6l0.2 0.1c1 0.2 1.5 1.6 2.6 1.1 0 0.7 0.1 1.4-0.1 1.9-0.3 0.8-1.2 0.8-1.9 0.8-6.7-0.4-10.6 2.4-14.7 4.8-1.1 0.7-2.3 1.2-3.2 2.1-4.3 4-9 7.7-10.1 15.1l-0.9 8.2c-0.1 0.9-1.1 1.8-0.9 2.9l0.7 4.9c-0.7-0.7-1.1 0.2-0.9 0.6 0.1 0.3 0.5 1.3 1.1 0.4 0.8 1.5 1.6 4.4 2.7 5.7 3.4 4 7.8 7.6 11.4 11.2 0.9-0.2 1.6-0.2 1.8-0.8 0.3 0.6-0.3 1.2-0.8 1.3 1.6 1 3.4 1.9 5.8 2.1 3.1 0.2 6 0.7 8.7 1.4 1.4-0.4 2.8-0.6 4.3-0.7 0.5 0 0.8-0.8 1.4-1l0.1-1c0.6 0.9 0.5-0.3 0.1-0.9 0.7 0.6 0.9 1.1 1.2 1.5 0-0.3 0.8-1.4 0.8-0.1l0.2-1.3c0.3-0.2 0.4 1.1 0.7 0.2 0.3-0.9 0.9-0.2 1.5-0.5-0.2 0.4-0.1 1.2 0.6 0.7l0.8-0.7c0.5 1.2 1.3 0.7 1.7 0.5 4.4-2.8 8.8-6.1 13-9.4l-0.1 1.3 0.5-1.6c0.5 0.5 0.9 0.1 1.1-0.2 0.6-1 1.4-2 2.7-2.9-1.6 4.3-3.5 7.7-5.9 10.5l-1 1.2c0 0.7-0.2 1.6-1 1.7-0.4 0.1-1.2-0.2-1.8 0.4-0.3 0.4 0.7 1.2-0.1 0.6-0.7-0.5-1.4 0-2.2 0.2-0.6 0.2 0.4 0.8 0.6 1.2 0.2 0.4 0.4 0.8 0.3 1.3l-1.1-1.2c-1.3 0.7-2.1 2-3.2 3-0.5 0.4-0.3 1.1-0.3 1.7-0.7 0-1.5-0.2-1.9 0.2-0.3 0.4-0.2 1-0.2 1.6-1-0.1-1.1-1.6-2-1.3-0.9 0.2-1.9 0.3-2.7 0.8 0.6 1.2-1 0.5-0.8 0.7-1.5-0.9-2.8-1.6-4.4-1-3.4-1.1-7.6-0.6-10.7-0.2 0-0.5 0.1-1-0.1-1.1-0.2 0.5-0.8 0.3-0.7 0.3-1.9-1.3-3.8-2.1-5.8-3.2-1.8 0.2-3.5-0.7-4-1.2-1.4-1.3-3-0.6-4.3-0.9-2.8-0.7-3.8-3.6-4.1-5.6-0.2-1-1-1.4-1.3-1.3-1.3-4.2-3.3-8-4.9-11.9-0.4-1-0.3-2-0.3-3.1 0.5 0.2 1 0.1 0.9-0.6-0.5-3.3-1.7-5.8-3-8.2 0.7-3.4 0.8-7.4 2.4-10.4 1.4-2.7 4-4.1 5.8-6.4 0.6-0.8 0.6-1.9 1.2-2.6 2-2 4-4.1 6.2-5.9 1-0.8 2.2 0 3.7-0.3 0.5-1.8 2.5-3.4 4.4-2.9 0.8 0.2 2.4-1.9 2.9-2.1 0.8-0.3 0.4 0.8 0.4 1.5 1.9-1.5 4.5-2.3 6.9-3.2" fill="#034620" fill-rule="nonzero" stroke="none" stroke-width="1" stroke-linecap="butt" stroke-linejoin="miter" stroke-miterlimit="10" stroke-dasharray="" stroke-dashoffset="0" font-family="none" font-weight="none" font-size="none" text-anchor="none" style="mix-blend-mode: normal" data-fill-palette-color="tertiary"></path></g><g transform="matrix(1,0,0,1,64,95.58626481220107)"><svg viewBox="0 0 192 168.82747037559787" height="168.82747037559787" width="192"><g><svg viewBox="0 0 192 168.82747037559787" height="168.82747037559787" width="192"><g><svg viewBox="0 0 192 168.82747037559787" height="168.82747037559787" width="192"><g transform="matrix(1,0,0,1,0,41.83820947856692)"><svg viewBox="0 0 192 126.98926089703096" height="126.98926089703096" width="192"><g id="textblocktransform"><svg viewBox="0 0 192 126.98926089703096" height="126.98926089703096" width="192" id="textblock"><g><svg viewBox="0 0 192 126.98926089703096" height="126.98926089703096" width="192"><g transform="matrix(1,0,0,1,0,0)"><svg width="192" viewBox="1.71 -25.56 38.65 25.56" height="126.98926089703096" data-palette-color="#034620"><path d="M7.67-1.78L7.67-1.78Q6.96-2.88 6.15-4.85 5.35-6.81 4.57-9.22 3.78-11.62 3.14-14.03 2.49-16.43 2.1-18.44 1.71-20.46 1.71-21.61L1.71-21.61Q1.71-22.09 1.98-22.41L1.98-22.41Q3.1-23.8 5.18-25.32L5.18-25.32Q5.54-25.56 5.83-25.56L5.83-25.56Q6.15-25.56 6.49-25.32L6.49-25.32Q7.62-24.51 8.39-23.8 9.16-23.1 9.69-22.41L9.69-22.41Q9.96-22.09 9.96-21.51L9.96-21.51 9.96-21.63Q9.96-20.12 10.14-18.14 10.33-16.16 10.67-14.06 11.01-11.96 11.49-10.06 11.96-8.15 12.55-6.79L12.55-6.79 12.7-6.79Q13.33-8.15 14.04-10.35 14.75-12.55 15.39-15 16.04-17.46 16.55-19.63 17.07-21.8 17.29-23.07L17.29-23.07Q17.46-24.02 18.05-24.34 18.65-24.66 19.73-24.66L19.73-24.66 22.56-24.66Q23.78-24.66 24.3-24.29 24.83-23.93 24.95-23.07L24.95-23.07Q25.15-21.75 25.66-19.52 26.17-17.29 26.82-14.79 27.47-12.3 28.13-10.13 28.78-7.96 29.25-6.79L29.25-6.79 29.42-6.79Q30.15-8.4 30.81-10.95 31.47-13.5 31.88-16.33 32.3-19.17 32.3-21.61L32.3-21.61 32.3-21.51Q32.3-22.09 32.54-22.41L32.54-22.41Q33.11-23.1 33.86-23.8 34.62-24.51 35.69-25.32L35.69-25.32Q36.04-25.56 36.33-25.56L36.33-25.56Q36.67-25.56 36.96-25.32L36.96-25.32Q38.06-24.51 38.82-23.8 39.58-23.1 40.11-22.41L40.11-22.41Q40.36-22.09 40.36-21.56L40.36-21.56Q40.33-20.36 39.89-18.37 39.45-16.38 38.73-14.01 38.01-11.65 37.15-9.28 36.28-6.91 35.39-4.93 34.5-2.95 33.74-1.78L33.74-1.78Q33.25-1.03 32.89-0.63 32.52-0.24 31.99-0.12 31.47 0 30.44 0L30.44 0 27.69 0Q26.54 0 25.89-0.33 25.24-0.66 24.68-1.78L24.68-1.78Q24.34-2.44 23.85-3.99 23.36-5.54 22.85-7.39 22.34-9.23 21.95-10.84 21.56-12.45 21.44-13.21L21.44-13.21Q21.31-13.94 21.18-14.99 21.04-16.04 21-16.65L21-16.65 20.87-16.65Q20.85-16.04 20.72-15 20.58-13.96 20.43-13.18L20.43-13.18Q20.29-12.5 19.9-11.07 19.51-9.64 18.96-7.92 18.41-6.2 17.81-4.57 17.21-2.93 16.67-1.78L16.67-1.78Q16.14-0.66 15.44-0.33 14.75 0 13.23 0L13.23 0 10.4 0Q9.2 0 8.78-0.37 8.35-0.73 7.67-1.78ZM1.71-21.51L1.71-21.66 1.71-21.61Q1.71-21.56 1.71-21.51L1.71-21.51ZM40.36-21.61L40.36-21.61 40.36-21.51 40.36-21.56Q40.36-21.58 40.36-21.61Z" opacity="1" transform="matrix(1,0,0,1,0,0)" fill="#034620" class="wordmark-text-0" data-fill-palette-color="primary" id="text-0"></path></svg></g></svg></g></svg></g></svg></g><g transform="matrix(1,0,0,1,36.672000000000004,0)"><svg viewBox="0 0 118.65599999999999 23.30742857142857" height="23.30742857142857" width="118.65599999999999"><g><svg xmlns="http://www.w3.org/2000/svg" data-name="Your Icon" viewBox="22 39 56 11" x="0" y="0" height="23.30742857142857" width="118.65599999999999" class="icon-icon-0" data-fill-palette-color="accent" id="icon-0"><path d="M50.5 45H35.5A2.5 2.5 0 0 0 35.5 50H50.5A2.5 2.5 0 0 0 50.5 45" fill="#f2dfcf" data-fill-palette-color="accent"></path><path d="M75.5 45H60.5A2.5 2.5 0 0 0 60.5 50H75.5A2.5 2.5 0 0 0 75.5 45" fill="#f2dfcf" data-fill-palette-color="accent"></path><circle cx="25.5" cy="42.5" r="3.5" fill="#f2dfcf" data-fill-palette-color="accent"></circle></svg></g></svg></g><g></g></svg></g></svg></g></svg></g></svg></g><defs></defs></svg><rect width="320" height="360" fill="none" stroke="none" visibility="hidden"></rect></g></svg></g></svg>